# File created by Blade
# Date/Time:  Thu Jan 22 16:21:39 2015
# Frame Rate: 120.000 fps
#------------------------------------------------------
:FULLY-SPECIFIED
:DEGREES
1299
root -13.846143 34.031509 -5.365771 2.640889 9.790842 7.527801
RightUpLeg -26.063763 4.522224 12.939007
RightLeg 18.558068 -0.000000 -0.000000
RightFoot -3.691980 -24.255602 2.901220
RightToeBase 13.120056 -0.000000 -0.000000
LeftUpLeg 15.614404 -0.617611 -29.657469
LeftLeg -4.270863 -0.000000 0.000000
LeftFoot -9.062707 1.200739 -4.094109
LeftToeBase 2.760365 -0.000000 -0.000000
Spine 18.576235 -14.039357 38.172430
RightShoulder 10.469298 -15.312098 -5.154278
RightArm 14.182270 10.402197 62.977684
RightForeArm 25.021037 -0.000000 18.223157
RightHand 10.076939 -0.000000 -18.282126
RightHandThumb1 -24.326973 -0.000000 -32.862282
LeftShoulder -23.352785 10.172041 46.037297
LeftArm 133.035528 -69.497266 -78.134037
LeftForeArm 31.195061 0.000000 34.555891
LeftHand -16.715314 0.000000 15.127562
LeftHandThumb1 -26.253704 0.000000 33.147579
Head 21.510607 -2.945806 55.714699
1300
root -13.839598 34.027531 -5.378522 2.650469 9.700186 7.525950
RightUpLeg -26.062266 4.657915 12.911654
RightLeg 18.520163 -0.000000 -0.000000
RightFoot -3.714401 -24.299188 2.958556
RightToeBase 13.212050 -0.000000 -0.000000
LeftUpLeg 15.577827 -0.573721 -29.677966
LeftLeg -4.317316 -0.000000 0.000000
LeftFoot -9.051094 1.195880 -4.123073
LeftToeBase 2.788055 -0.000000 -0.000000
Spine 18.631875 -14.028975 38.165179
RightShoulder 10.474127 -15.341787 -5.173701
RightArm 14.209319 10.308042 62.911375
RightForeArm 25.071070 -0.000000 18.200957
RightHand 10.041672 -0.000000 -18.264605
RightHandThumb1 -24.326973 -0.000000 -32.862282
LeftShoulder -23.313888 10.133196 46.053901
LeftArm 132.796312 -69.602112 -77.991811
LeftForeArm 31.505430 0.000000 34.573748
LeftHand -16.591700 0.000000 14.859902
LeftHandThumb1 -26.253704 0.000000 33.147579
Head 21.446522 -2.854880 55.705736
1301
root -13.831347 34.023416 -5.392695 2.667136 9.599485 7.529166
RightUpLeg -26.064793 4.825995 12.869932
RightLeg 18.477774 -0.000000 -0.000000
RightFoot -3.737752 -24.379735 3.005806
RightToeBase 13.246349 -0.000000 -0.000000
LeftUpLeg 15.543425 -0.535060 -29.702608
LeftLeg -4.392984 -0.000000 0.000000
LeftFoot -9.003062 1.192285 -4.177438
LeftToeBase 2.797375 -0.000000 -0.000000
Spine 18.697707 -14.030335 38.146602
RightShoulder 10.488486 -15.338900 -5.202429
RightArm 14.241845 10.278732 62.896025
RightForeArm 25.103662 -0.000000 18.145445
RightHand 10.096490 -0.000000 -18.258072
RightHandThumb1 -24.326973 -0.000000 -32.862282
LeftShoulder -23.336344 10.110630 46.065578
LeftArm 132.745954 -69.575257 -78.036636
LeftForeArm 31.780525 -0.000000 34.562930
LeftHand -16.598772 -0.000000 14.675896
LeftHandThumb1 -26.253704 0.000000 33.147579
Head 21.411929 -2.774293 55.659866
1302
root -13.823172 34.018867 -5.410215 2.704344 9.502774 7.538010
RightUpLeg -26.106612 4.965785 12.828447
RightLeg 18.463002 -0.000000 -0.000000
RightFoot -3.724221 -24.426969 2.990409
RightToeBase 13.303635 -0.000000 -0.000000
LeftUpLeg 15.484081 -0.532716 -29.734692
LeftLeg -4.451455 -0.000000 0.000000
LeftFoot -8.978865 1.152109 -4.276611
LeftToeBase 2.479246 -0.000000 -0.000000
Spine 18.747208 -14.034628 38.121220
RightShoulder 10.521214 -15.317204 -5.226548
RightArm 14.246820 10.283321 62.885849
RightForeArm 25.121137 -0.000000 18.122940
RightHand 10.159707 0.000000 -18.304289
RightHandThumb1 -24.326973 -0.000000 -32.862282
LeftShoulder -23.335517 10.125476 46.064989
LeftArm 132.795612 -69.624088 -78.181173
LeftForeArm 31.907474 -0.000000 34.572464
LeftHand -16.684014 -0.000000 14.536334
LeftHandThumb1 -26.253704 0.000000 33.147579
Head 21.381023 -2.682027 55.626373
1303
root -13.811484 34.014632 -5.426514 2.724013 9.387046 7.551261
RightUpLeg -26.128154 5.112804 12.777453
RightLeg 18.456924 -0.000000 -0.000000
RightFoot -3.754142 -24.456456 3.039910
RightToeBase 13.294420 -0.000000 -0.000000
LeftUpLeg 15.442012 -0.521087 -29.784727
LeftLeg -4.538850 -0.000000 0.000000
LeftFoot -8.914666 1.187610 -4.324467
LeftToeBase 2.511873 -0.000000 -0.000000
Spine 18.817059 -14.045052 38.095485
RightShoulder 10.566465 -15.308563 -5.275691
RightArm 14.252828 10.231078 62.865034
RightForeArm 25.200771 -0.000000 18.108981
RightHand 10.153342 0.000000 -18.383617
RightHandThumb1 -24.326973 -0.000000 -32.862282
LeftShoulder -23.311569 10.153453 46.054182
LeftArm 132.920905 -69.688767 -78.404458
LeftForeArm 31.850589 -0.000000 34.547039
LeftHand -16.839514 -0.000000 14.551455
LeftHandThumb1 -26.253704 0.000000 33.147579
Head 21.349275 -2.495575 55.626366
1304
root -13.800924 34.011523 -5.441649 2.754501 9.288454 7.558530
RightUpLeg -26.166173 5.236616 12.736549
RightLeg 18.457354 -0.000000 -0.000000
RightFoot -3.772783 -24.485152 3.088400
RightToeBase 13.270318 -0.000000 -0.000000
LeftUpLeg 15.390868 -0.514346 -29.817606
LeftLeg -4.611143 -0.000000 0.000000
LeftFoot -8.889619 1.203945 -4.315169
LeftToeBase 2.661948 -0.000000 -0.000000
Spine 18.866283 -14.088108 38.089272
RightShoulder 10.623649 -15.272660 -5.321205
RightArm 14.227768 10.096900 62.804533
RightForeArm 25.378824 -0.000000 18.099621
RightHand 10.212740 -0.000000 -18.519745
RightHandThumb1 -24.326973 -0.000000 -32.862282
LeftShoulder -23.302692 10.140937 46.042400
LeftArm 132.960712 -69.722266 -78.549156
LeftForeArm 31.840627 -0.000000 34.542060
LeftHand -16.791081 -0.000000 14.497013
LeftHandThumb1 -26.253704 0.000000 33.147579
Head 21.377859 -2.356757 55.623750
1305
root -13.787879 34.005886 -5.459998 2.804375 9.174825 7.578454
RightUpLeg -26.216814 5.380460 12.683794
RightLeg 18.445708 -0.000000 -0.000000
RightFoot -3.788025 -24.533114 3.052885
RightToeBase 13.316431 -0.000000 -0.000000
LeftUpLeg 15.304408 -0.519798 -29.868809
LeftLeg -4.651204 -0.000000 0.000000
LeftFoot -8.861060 1.215836 -4.366959
LeftToeBase 3.083103 -0.000000 -0.000000
Spine 18.914782 -14.100029 38.063959
RightShoulder 10.655324 -15.274080 -5.365532
RightArm 14.271098 10.167079 62.835416
RightForeArm 25.301558 -0.000000 18.092173
RightHand 10.214019 -0.000000 -18.642178
RightHandThumb1 -24.326973 -0.000000 -32.862282
LeftShoulder -23.297423 10.207566 46.012897
LeftArm 133.296555 -69.760340 -78.990884
LeftForeArm 31.648457 -0.000000 34.511986
LeftHand -16.754257 -0.000000 14.621655
LeftHandThumb1 -26.253704 0.000000 33.147579
Head 21.375388 -2.273604 55.570690
1306
root -13.776657 34.001176 -5.478011 2.845168 9.058307 7.584867
RightUpLeg -26.275161 5.505927 12.641151
RightLeg 18.460912 -0.000000 -0.000000
RightFoot -3.824207 -24.513753 3.143029
RightToeBase 13.302884 -0.000000 -0.000000
LeftUpLeg 15.213892 -0.497553 -29.909212
LeftLeg -4.677860 -0.000000 0.000000
LeftFoot -8.835981 1.235962 -4.390320
LeftToeBase 3.027938 -0.000000 -0.000000
Spine 18.982370 -14.110009 38.052525
RightShoulder 10.652586 -15.247379 -5.394002
RightArm 14.319875 10.175971 62.836596
RightForeArm 25.273280 0.000000 18.066590
RightHand 10.135786 0.000000 -18.655723
RightHandThumb1 -24.326973 -0.000000 -32.862282
LeftShoulder -23.281975 10.145295 46.030720
LeftArm 133.387631 -69.775650 -79.162426
LeftForeArm 31.448432 -0.000000 34.428269
LeftHand -16.899029 -0.000000 14.688707
LeftHandThumb1 -26.253704 0.000000 33.147579
Head 21.371529 -2.157822 55.559791
1307
root -13.764411 33.995148 -5.496108 2.890000 8.954258 7.587036
RightUpLeg -26.325327 5.629840 12.604606
RightLeg 18.447975 -0.000000 -0.000000
RightFoot -3.829975 -24.532934 3.131872
RightToeBase 13.323831 -0.000000 -0.000000
LeftUpLeg 15.125797 -0.502444 -29.949018
LeftLeg -4.710200 -0.000000 0.000000
LeftFoot -8.834418 1.259326 -4.382700
LeftToeBase 2.708129 -0.000000 -0.000000
Spine 19.042100 -14.110813 38.043191
RightShoulder 10.637621 -15.275751 -5.411418
RightArm 14.380083 10.051950 62.759409
RightForeArm 25.395714 -0.000000 18.050181
RightHand 10.199749 -0.000000 -18.648870
RightHandThumb1 -24.326973 -0.000000 -32.862282
LeftShoulder -23.301996 10.112379 46.046465
LeftArm 133.654948 -69.728485 -79.519051
LeftForeArm 31.206579 -0.000000 34.339287
LeftHand -16.767019 -0.000000 14.882996
LeftHandThumb1 -26.253704 0.000000 33.147579
Head 21.323192 -2.039355 55.557489
